<?xml version="1.0" encoding="utf-8"?>
<!-- Generator: Adobe Illustrator 21.0.0, SVG Export Plug-In . SVG Version: 6.00 Build 0)  -->
<svg version="1.1" id="Layer_1" xmlns="http://www.w3.org/2000/svg" xmlns:xlink="http://www.w3.org/1999/xlink" x="0px" y="0px"
	 viewBox="0 0 778.7 170" style="enable-background:new 0 0 778.7 170;" xml:space="preserve">
<style type="text/css">
	.st0{fill:#006C32;}
</style>
<g>
	<path class="st0" d="M84.4,64.3c3-0.1,21.4-1.5,21.4-30.6C105.7,2,80.6,0,71.3,0H55.9H0v24.1c0,0,7.2,3.8,7.3,12.6v59.6
		c0,0,0.8,11.2-7.3,14.3v26h55.9h14.4c0,0,37.5-1.2,37.5-37.3C107.8,66,87.5,64.4,84.4,64.3z M55.9,106.8h-0.7h-8.7V77.9
		c0,0,4.7-0.7,9.4,0.3c4.6,1.4,9,4.8,9,13.3C64.9,105.4,57.9,106.8,55.9,106.8z M55.9,53.4h-0.7h-8.7V27.9c0,0,4.7-0.7,9.4,0.3
		c4.6,1.4,9,4.4,9,11.6C64.9,52.1,57.9,53.4,55.9,53.4z"/>
	<path class="st0" d="M121.5,0H174v22.9c0,0-6,1.7-6,9.8v67.2c0,0,1.4,12.1,6.4,12.8c0,10.4,0,15.1,0,15.1s0,8.6-9,8.6h-43.5v-24.8
		c0,0,4-1.7,4-10.1V31.3c0,0,1-6.4-4-8.7C121.8,19.5,121.5,0,121.5,0z"/>
	<path class="st0" d="M322.2,0h-51.5l-14,53.9L241.9,0H189v22.7c0,0,5.7,1,5.7,9.4v69.3c0,0,0.7,6-5.7,9.4v25.7h35.1
		c0,0,7.4-0.2,7.4-8.6v-17.1c0,0-5-3.3-5-8.7V61.9l19.4,74.5H258l18.7-74.5v39.5c0,0,1.7,5-4.4,9.4v25.7h42.5c0,0,7.7-2.9,7.7-8.6
		v-17.1c0,0-4.7-4.7-4.7-11V35.5c0,0-1-9,4.3-11.4V0H322.2z"/>
	<path class="st0" d="M653.9,136.5c-24.1-0.3-30.8-17.1-30.8-38.8V55.2h9v42.5c0,3.7,0,10,0.7,12.7c3.7,22.8,38.1,25.1,41.8,0.3
		c0.7-2.6,1-9.4,1-13V55.2h9V98C684.7,122.1,677.3,136.2,653.9,136.5z"/>
	<path class="st0" d="M573.2,55.2c-23.4,0-42.5,18.2-42.5,40.6s19.1,40.7,42.5,40.7s42.5-18.2,42.5-40.7S596.6,55.2,573.2,55.2z
		 M573.2,129.1c-19.4,0-34.8-14.8-34.8-33.2s15.4-33.2,34.8-33.2S608,77.4,608,95.9S592.6,129.1,573.2,129.1z"/>
	<path class="st0" d="M405.1,0c24,0,45.5,11.4,58.4,28.9l-5.5,4.2c-11.7-16.2-30.9-26.7-52.9-26.7c-35.4,0-64.3,27.6-64.3,61.4
		s28.9,61.4,64.3,61.4c31.8,0,58.4-22.1,63.3-51.3h-45.8v-8.1h46.8h6.8c-1,36.7-32.5,66.3-71.1,66.3c-39.3,0-71.5-30.5-71.5-68.2
		C333.6,30.2,365.8,0,405.1,0z"/>
	<path class="st0" d="M517.8,55.2c-7.6,0-14.6,3.9-19.9,10.3V55.2h-6.7v81.3h6.7V91.3c0-0.3,0-0.6,0-1v-0.9c0.2-4.6,1.3-11.1,2.3-14
		c1.1-3.7,3.2-6.8,6-9c3.4-2.5,7.4-3.9,11.6-3.9c4.2,0,8.2,1.4,11.6,3.9l4.5-4.9C529.3,57.6,523.8,55.2,517.8,55.2z"/>
</g>
<path class="st0" d="M736.2,55.2c-13.9,0-26.3,6.4-34,16.3V55.2h-8.5V170h8.5v-49.8c7.8,9.9,20.1,16.3,34,16.3
	c23.5,0,42.5-18.2,42.5-40.6S759.7,55.2,736.2,55.2z M735.9,129.2c-15.9,0-29.4-10-33.7-23.8V86.3c4.3-13.8,17.8-23.8,33.7-23.8
	c19.4,0,35.2,15,35.2,33.4S755.3,129.2,735.9,129.2z"/>
<g>
	<path class="st0" d="M330.5,13V4.4h3.8c0.8,0,1.3,0.1,1.7,0.2s0.7,0.4,1,0.8s0.4,0.8,0.4,1.3c0,0.6-0.2,1.1-0.6,1.5
		c-0.4,0.4-1,0.7-1.8,0.8c0.3,0.1,0.5,0.3,0.7,0.4c0.3,0.3,0.6,0.7,0.9,1.1l1.5,2.3h-1.4l-1.1-1.8c-0.3-0.5-0.6-0.9-0.8-1.2
		s-0.4-0.5-0.6-0.6s-0.3-0.2-0.5-0.2c-0.1,0-0.3,0-0.6,0h-1.3V13H330.5z M331.7,8.2h2.4c0.5,0,0.9-0.1,1.2-0.2
		c0.3-0.1,0.5-0.3,0.7-0.5s0.2-0.5,0.2-0.8c0-0.4-0.1-0.7-0.4-1s-0.8-0.4-1.4-0.4h-2.7V8.2z"/>
</g>
<path class="st0" d="M334.3,0c-4.8,0-8.7,3.9-8.7,8.7s3.9,8.7,8.7,8.7s8.7-3.9,8.7-8.7S339.1,0,334.3,0z M334.3,16
	c-4,0-7.3-3.3-7.3-7.3s3.3-7.3,7.3-7.3s7.3,3.3,7.3,7.3S338.3,16,334.3,16z"/>
</svg>
